<svg xmlns="http://www.w3.org/2000/svg" fill="none" viewBox="0 0 144 140"><g clip-path="url(#a)"><path fill="#F2F2F2" d="M91.407 31.485H52.65a3.34 3.34 0 0 0-2.354.975 3.321 3.321 0 0 0-.977 2.347V120.7l-.445.135-9.507 2.903a1.777 1.777 0 0 1-2.219-1.176L8.867 30.447a1.768 1.768 0 0 1 1.179-2.212l14.652-4.474 42.475-12.964 14.651-4.474a1.78 1.78 0 0 1 1.89.565c.15.18.26.387.329.61l7.23 23.544.135.443Z"/><path fill="#3F3D56" d="M99.865 31.044 91.153 2.666A3.76 3.76 0 0 0 89.314.443a3.782 3.782 0 0 0-2.876-.275l-20.6 6.287-42.472 12.967-20.6 6.289A3.777 3.777 0 0 0 .54 27.545a3.759 3.759 0 0 0-.278 2.868l29.778 96.983a3.787 3.787 0 0 0 3.611 2.664c.375 0 .747-.056 1.104-.166l14.121-4.31.444-.137v-.463l-.444.135-14.252 4.352a3.342 3.342 0 0 1-2.536-.244 3.327 3.327 0 0 1-1.623-1.96L.688 30.282a3.308 3.308 0 0 1 1.064-3.535 3.332 3.332 0 0 1 1.145-.613l20.6-6.29L65.97 6.88 86.569.591a3.34 3.34 0 0 1 2.957.507 3.325 3.325 0 0 1 1.203 1.697L99.4 31.044l.138.443H100l-.136-.443Z"/><path fill="#848484" d="M27.341 28.307a2.006 2.006 0 0 1-1.912-1.41l-2.86-9.317a1.986 1.986 0 0 1 .638-2.121c.203-.167.436-.292.687-.368L62.97 3.162a2.006 2.006 0 0 1 2.497 1.322l2.86 9.318A1.99 1.99 0 0 1 67 16.29L27.925 28.219a2 2 0 0 1-.584.088Z"/><path fill="#848484" d="M42.327 9.956a4.436 4.436 0 0 0 4.442-4.43 4.436 4.436 0 0 0-4.442-4.428 4.436 4.436 0 0 0-4.442 4.429 4.436 4.436 0 0 0 4.442 4.429Z"/><path fill="#fff" d="M42.326 8.331a2.809 2.809 0 0 0 2.813-2.805 2.809 2.809 0 0 0-2.813-2.804 2.809 2.809 0 0 0-2.812 2.804 2.809 2.809 0 0 0 2.812 2.805Z"/><path fill="#E6E6E6" d="M133.936 128.927H58.868c-.5-.001-.98-.199-1.334-.552a1.88 1.88 0 0 1-.553-1.33v-89.69c0-.5.2-.978.553-1.331a1.892 1.892 0 0 1 1.334-.552h75.068a1.89 1.89 0 0 1 1.888 1.882v89.691c-.001.499-.2.977-.554 1.33a1.895 1.895 0 0 1-1.334.552Z"/><path fill="#3F3D56" d="M99.4 31.043H52.65a3.791 3.791 0 0 0-2.669 1.104 3.765 3.765 0 0 0-1.107 2.66v90.311l.444-.135V34.808c.001-.88.353-1.725.977-2.348a3.34 3.34 0 0 1 2.355-.974h46.888l-.138-.443Zm40.754 0H52.65a3.791 3.791 0 0 0-2.669 1.104 3.765 3.765 0 0 0-1.107 2.66v101.429c.001.998.4 1.954 1.107 2.66A3.783 3.783 0 0 0 52.65 140h87.504a3.785 3.785 0 0 0 2.669-1.104 3.765 3.765 0 0 0 1.107-2.66V34.808a3.766 3.766 0 0 0-1.107-2.66 3.789 3.789 0 0 0-2.669-1.105Zm3.332 105.193a3.321 3.321 0 0 1-.977 2.347 3.34 3.34 0 0 1-2.355.974H52.65a3.339 3.339 0 0 1-2.355-.974 3.32 3.32 0 0 1-.977-2.347V34.808c.001-.88.353-1.725.977-2.348a3.34 3.34 0 0 1 2.355-.974h87.504a3.34 3.34 0 0 1 2.355.974c.624.623.976 1.467.977 2.348v101.428Z"/><path fill="#848484" d="M116.835 40.787H75.97a2 2 0 0 1-1.413-.584 1.993 1.993 0 0 1-.586-1.41V29.05c0-.529.211-1.035.586-1.409a2.004 2.004 0 0 1 1.412-.584h40.866a2 2 0 0 1 1.999 1.993v9.744a2 2 0 0 1-1.999 1.993Z"/><path fill="#848484" d="M96.403 27.72a4.436 4.436 0 0 0 4.442-4.428 4.436 4.436 0 0 0-4.442-4.43 4.436 4.436 0 0 0-4.442 4.43 4.436 4.436 0 0 0 4.442 4.429Z"/><path fill="#fff" d="M96.403 25.99a2.702 2.702 0 0 0 2.705-2.698 2.702 2.702 0 0 0-2.705-2.698 2.702 2.702 0 0 0-2.706 2.697 2.702 2.702 0 0 0 2.706 2.698Z"/></g><defs><clipPath id="a"><path fill="#fff" d="M0 0h143.836v140H0z" transform="translate(.095)"/></clipPath></defs></svg>